PathFileType	3	(X/Y/Z)	F:\ViconData\AntennenMessung\Messung1\Session1\ID18.trc
DataRate	CameraRate	NumFrames	NumMarkers	Units	OrigDataRate	OrigDataStartFrame	OrigNumFrames
120.0	120.0	6	70	mm	120.0	638	1020	
Frame#	Time	Ashort			Along			Atop			A4			Bshort			Blong			Btop			B4			Cshort			Clong			Ctop			C4			Dshort			Dlong			Dtop			D4			Eshort			Elong			Etop			E4			Fshort			Flong			Ftop			F4			Gshort			Glong			Gtop			G4			Hshort			Hlong			Htop			H4			I1			I2			I3			I4			I5			WandAshort			WandAlong			WandAtop			WandA4			WandA15			WandBshort			WandB4			WandB5			WandBtop			WandBlong			WandCshort			WandClong			WandCtop			WandC4			WandC5			Acenter			Aantenna			Bcenter			Bantenna			Ccenter			Cantenna			Dcenter			Dantenna			Ecenter			Eantenna			Fcenter			Fantenna			Gcenter			Gantenna			Hcenter			Hantenna			Icenter			Iantenna			
		X1	Y1	Z1	X2	Y2	Z2	X3	Y3	Z3	X4	Y4	Z4	X5	Y5	Z5	X6	Y6	Z6	X7	Y7	Z7	X8	Y8	Z8	X9	Y9	Z9	X10	Y10	Z10	X11	Y11	Z11	X12	Y12	Z12	X13	Y13	Z13	X14	Y14	Z14	X15	Y15	Z15	X16	Y16	Z16	X17	Y17	Z17	X18	Y18	Z18	X19	Y19	Z19	X20	Y20	Z20	X21	Y21	Z21	X22	Y22	Z22	X23	Y23	Z23	X24	Y24	Z24	X25	Y25	Z25	X26	Y26	Z26	X27	Y27	Z27	X28	Y28	Z28	X29	Y29	Z29	X30	Y30	Z30	X31	Y31	Z31	X32	Y32	Z32	X33	Y33	Z33	X34	Y34	Z34	X35	Y35	Z35	X36	Y36	Z36	X37	Y37	Z37	X38	Y38	Z38	X39	Y39	Z39	X40	Y40	Z40	X41	Y41	Z41	X42	Y42	Z42	X43	Y43	Z43	X44	Y44	Z44	X45	Y45	Z45	X46	Y46	Z46	X47	Y47	Z47	X48	Y48	Z48	X49	Y49	Z49	X50	Y50	Z50	X51	Y51	Z51	X52	Y52	Z52	X53	Y53	Z53	X54	Y54	Z54	X55	Y55	Z55	X56	Y56	Z56	X57	Y57	Z57	X58	Y58	Z58	X59	Y59	Z59	X60	Y60	Z60	X61	Y61	Z61	X62	Y62	Z62	X63	Y63	Z63	X64	Y64	Z64	X65	Y65	Z65	X66	Y66	Z66	X67	Y67	Z67	X68	Y68	Z68	X69	Y69	Z69	X70	Y70	Z70	
638	5.3083333	-1038.2291	214.50574	-1644.224	-1109.3982	204.08405	-1599.2867	-1063.7898	173.18738	-1625.6661	-1054.1843	262.24612	-1634.9733	-1352.9673	234.8849	1003.7261	-1281.3661	227.05179	1052.4709	-1322.9623	193.72536	1021.0261	-1284.7629	287.85541	1052.8373	813.9021	187.64467	1209.4742	892.14313	178.44444	1179.335	844.23932	145.6875	1198.2295	860.6355	292.71463	1167.4618	1115.7031	209.81125	-1401.7682	1056.1692	194.01184	-1460.2745	1095.1067	162.4003	-1423.9186	1069.818	238.67445	-1425.7748	-1204.5131	1685.9493	-1563.2196	-1129.172	1688.2963	-1606.0511	-1173.1951	1724.4281	-1581.9465	-1134.0746	1580.9614	-1603.8873	-1239.6437	1699.1648	1119.4966	-1309.0842	1698.3395	1071.7476	-1270.4357	1736.3125	1096.8911	-1244.901	1593.7091	1106.3031	988.89569	1664.2648	1162.245	957.53107	1700.3259	1183.8583	922.79791	1662.0503	1215.1077	939.78528	1659.3792	1159.9095	999.0412	1668.4205	-1579.4667	1058.7399	1669.9584	-1518.6886	1024.9698	1707.9991	-1551.1716	1059.2472	1672.1254	-1585.5031	-261.3595	164.31015	-221.55467	-346.60626	172.7059	-224.56955	-303.2756	129.05409	-221.77248	-299.63037	169.48979	-191.68488	-297.90707	166.37396	-270.20117																																														-1068.7396	210.03787	-1624.9591	-1073.9308	248.68375	-1624.2178	-1321.5966	231.45297	1025.0826	-1320.1937	270.20438	1029.2493	847.97705	183.63785	1196.348	851.7951	222.40289	1194.4263	1088.7183	202.64989	-1428.2871	1082.6394	240.94832	-1432.444	-1171.9167	1686.9646	-1581.7505	-1170.5865	1647.9878	-1581.5468	-1270.8015	1698.7943	1098.0715	-1271.1816	1659.8156	1099.2981	953.14746	1705.3658	1186.879	972.89056	1733.5438	1168.5156	1026.4102	1669.1256	-1551.6028	1027.854	1630.1547	-1552.0352	-299.39453	168.05614	-222.89983	-295.5343	206.84842	-224.02112
639	5.3166667	-1038.1879	214.44287	-1644.2776	-1109.3928	204.0849	-1599.3285	-1063.7231	173.17401	-1625.7146	-1054.2139	262.2261	-1634.9771	-1353.0146	234.91585	1003.7344	-1281.3602	227.11343	1052.4851	-1322.9651	193.79468	1021.0327	-1284.7335	287.84402	1052.859	813.96979	187.62334	1209.4772	892.12274	178.3618	1179.3594	844.30267	145.62466	1198.2236	860.63239	292.72076	1167.422	1115.66	209.54268	-1401.6051	1056.1305	194.02922	-1460.3351	1095.1163	162.39673	-1423.9429	1069.7726	238.65901	-1425.8107	-1204.5923	1686.0131	-1563.0763	-1129.1714	1688.2655	-1606.0322	-1173.1943	1724.4437	-1581.9586	-1134.0861	1580.9596	-1603.8845	-1239.6479	1699.1753	1119.4954	-1309.241	1698.5804	1071.842	-1270.3862	1736.2588	1096.8633	-1244.6227	1593.9131	1106.5471	988.86298	1664.2256	1162.2637	957.47272	1700.3622	1183.807	922.63403	1662.0259	1215.0038	939.7677	1659.4326	1159.8882	999.05023	1668.426	-1579.4694	1058.7275	1669.9552	-1518.6935	1024.9686	1708.0048	-1551.1755	1059.2479	1672.1246	-1585.4974	-261.37329	164.32292	-221.54866	-346.63681	172.75418	-224.59782	-303.26648	129.06201	-221.79858	-299.58508	169.50162	-191.63564	-297.92065	166.36644	-270.18396																																														-1068.6576	210.01051	-1625.0431	-1073.835	248.65891	-1624.3386	-1321.6219	231.49751	1025.0928	-1320.2413	270.24905	1029.2656	848.07288	183.58192	1196.3348	851.92303	222.34346	1194.4061	1088.7803	202.5378	-1428.1238	1082.7316	240.85857	-1432.1151	-1171.9197	1686.9888	-1581.6848	-1170.5934	1648.0125	-1581.3999	-1270.9073	1698.908	1098.0907	-1271.4513	1659.9329	1099.3716	953.13977	1705.3502	1186.7806	972.95715	1733.495	1168.4464	1026.4066	1669.127	-1551.6093	1027.848	1630.156	-1552.0439	-299.3685	168.08008	-222.90742	-295.49323	206.87138	-224.00983
640	5.325	-1038.2313	214.48376	-1644.2179	-1109.3885	204.04929	-1599.2804	-1063.9851	172.56651	-1625.3209	-1054.2422	262.22	-1634.9711	-1352.9296	234.91916	1003.7504	-1281.3967	227.04836	1052.5084	-1322.8555	193.83936	1020.9589	-1284.7404	287.86719	1052.8269	813.85492	187.74973	1209.4677	892.13171	178.463	1179.3278	844.30963	145.65967	1198.2642	860.74603	292.68835	1167.7458	1115.71	209.81123	-1401.7593	1056.1375	193.98082	-1460.2915	1095.1851	162.45201	-1423.9629	1069.7864	238.67664	-1425.8245	-1204.595	1686.0177	-1563.071	-1129.1821	1688.2753	-1606.0378	-1173.1975	1724.4301	-1581.9491	-1134.0802	1580.9612	-1603.8752	-1239.6505	1699.1854	1119.4963	-1309.0758	1698.3335	1071.7578	-1270.3767	1736.2366	1096.855	-1244.6379	1593.8617	1106.5449	988.90857	1664.2605	1162.2483	957.51862	1700.3549	1183.881	922.72681	1662.0356	1215.0585	939.77661	1659.4502	1159.9186	999.02185	1668.4521	-1579.5042	1058.7294	1669.9492	-1518.6931	1024.9746	1708.002	-1551.176	1059.2435	1672.124	-1585.5161	-261.50763	164.49254	-221.47496	-346.62454	172.74805	-224.59534	-303.26437	129.13826	-221.83829	-299.61826	169.48683	-191.67543	-297.83295	166.37564	-270.12082																																														-1069.0936	209.95813	-1624.7275	-1074.3721	248.59442	-1624.1145	-1321.5601	231.46753	1025.1324	-1320.2263	270.20712	1029.4293	848.06378	183.69119	1196.2958	851.88983	222.45119	1194.2897	1088.7324	202.64243	-1428.2655	1082.5846	240.93599	-1432.3651	-1171.926	1686.9956	-1581.6842	-1170.6021	1648.019	-1581.4083	-1270.7712	1698.8035	1098.0968	-1271.1821	1659.827	1099.39	953.15125	1705.3766	1186.8907	972.93402	1733.5581	1168.5754	1026.4004	1669.1385	-1551.6194	1027.8303	1630.1672	-1552.064	-299.44086	168.17168	-222.86557	-295.64011	206.9726	-223.88676
641	5.3333333	-1038.2305	214.5323	-1644.235	-1109.4131	204.08954	-1599.3171	-1063.9293	172.57616	-1625.3679	-1054.1947	262.23209	-1634.9662	-1352.9268	234.87286	1003.782	-1281.3275	227.11131	1052.4718	-1322.8121	193.84399	1020.963	-1284.7328	287.82834	1052.8822	813.93793	187.761	1209.5895	892.14777	178.47215	1179.3407	844.27069	145.64801	1198.2764	860.62939	292.66422	1167.6627	1115.6597	209.54291	-1401.603	1056.1752	194.03473	-1460.2992	1095.1249	162.43213	-1423.9183	1069.7939	238.70374	-1425.7982	-1204.5127	1685.9448	-1563.2202	-1129.1625	1688.3016	-1606.0613	-1173.1952	1724.4415	-1581.9625	-1134.0743	1580.9614	-1603.8855	-1239.5682	1699.0599	1119.4519	-1309.0574	1698.2296	1071.7164	-1270.3905	1736.2428	1096.8582	-1244.7065	1593.6531	1106.5742	988.91565	1664.2704	1162.2405	957.45001	1700.3875	1183.8408	922.70886	1662.0129	1215.0795	939.76385	1659.4531	1159.8744	999.03668	1668.4301	-1579.4808	1058.738	1669.9448	-1518.6914	1024.9705	1708.0007	-1551.1747	1059.2408	1672.1251	-1585.501	-261.35349	164.30176	-221.55431	-346.64737	172.78285	-224.59904	-303.2395	129.15828	-221.89113	-299.61377	169.52094	-191.70534	-297.92276	166.37926	-270.19727																																														-1069.0533	210.01044	-1624.785	-1074.3417	248.64555	-1624.1836	-1321.5563	231.47223	1025.1147	-1320.2635	270.21567	1029.3896	848.06201	183.70813	1196.3915	851.92316	222.46901	1194.4718	1088.8004	202.54045	-1428.1062	1082.7581	240.86121	-1432.1073	-1171.907	1686.9646	-1581.7585	-1170.5673	1647.9882	-1581.5464	-1270.7485	1698.6873	1098.0325	-1271.1202	1659.7081	1099.2515	953.09753	1705.3834	1186.8287	972.84314	1733.5641	1168.4723	1026.4044	1669.1244	-1551.6143	1027.8419	1630.1534	-1552.0551	-299.33313	168.07822	-222.91006	-295.43967	206.87009	-223.92564
642	5.3416667	-1038.2333	214.58258	-1644.2628	-1109.3829	204.12334	-1599.33	-1063.7921	173.06934	-1625.6251	-1054.1941	262.2388	-1634.9614	-1353.04	234.83827	1003.7983	-1281.3223	227.18533	1052.4454	-1322.7927	193.82246	1020.9567	-1284.7621	287.84778	1052.8898	813.82941	187.69664	1209.5341	892.05725	178.31447	1179.412	844.29199	145.68942	1198.2393	860.54968	292.72018	1167.4465	1115.6619	209.55392	-1401.6151	1056.123	193.97754	-1460.2756	1095.1055	162.41881	-1423.9349	1069.8175	238.67226	-1425.7826	-1204.5131	1685.9364	-1563.2222	-1129.1664	1688.2952	-1606.0442	-1173.1946	1724.4408	-1581.9521	-1134.0786	1580.9509	-1603.8816	-1239.6383	1699.1763	1119.4924	-1309.104	1698.3556	1071.7618	-1270.3943	1736.2612	1096.8623	-1244.6249	1593.8624	1106.442	988.84351	1664.2072	1162.236	957.48541	1700.4401	1183.7944	922.76172	1662.1321	1215.1593	939.73206	1659.3877	1159.9437	999.0246	1668.4447	-1579.4846	1058.8698	1670.1421	-1518.6835	1024.9674	1708.0011	-1551.1802	1059.2325	1672.1211	-1585.5017	-261.34824	164.33881	-221.62215	-346.58643	172.90822	-224.57216	-303.26712	129.16415	-221.88171	-299.60211	169.4996	-191.66042	-297.80319	166.35696	-270.14081																																														-1068.8096	210.08775	-1624.953	-1074.0469	248.72812	-1624.2515	-1321.6008	231.48341	1025.1239	-1320.3745	270.22763	1029.4113	848.10431	183.58589	1196.3363	852.00311	222.34171	1194.3901	1088.7496	202.51321	-1428.1304	1082.6759	240.82817	-1432.1396	-1171.9078	1686.9572	-1581.7527	-1170.5699	1647.9806	-1581.5454	-1270.7925	1698.8082	1098.0861	-1271.207	1659.8312	1099.3594	953.20312	1705.3879	1186.7384	972.97498	1733.4828	1168.2789	1026.4819	1669.2234	-1551.5884	1028.004	1630.2554	-1551.9988	-299.31067	168.15535	-222.93597	-295.37497	206.94208	-223.98471
643	5.35	-1038.1735	214.444	-1644.3008	-1109.3983	204.03072	-1599.2622	-1063.8048	173.08293	-1625.6361	-1054.2128	262.21152	-1634.9655	-1352.968	234.90755	1003.6607	-1281.4058	227.15544	1052.5419	-1322.8627	193.82457	1021.0161	-1284.76	287.84418	1052.8757	813.85016	187.73557	1209.4476	892.15118	178.48744	1179.3096	844.54022	145.46423	1198.2366	860.55286	292.71512	1167.5087	1115.6965	209.81995	-1401.7568	1056.1606	194.00874	-1460.2866	1095.1309	162.45502	-1423.9408	1069.7861	238.66339	-1425.7966	-1204.5107	1685.9417	-1563.2142	-1129.1687	1688.2596	-1606.0206	-1173.1946	1724.4343	-1581.9609	-1134.0757	1580.9589	-1603.8889	-1239.5905	1699.1	1119.4595	-1309.0964	1698.3778	1071.7775	-1270.4167	1736.2983	1096.8792	-1244.642	1593.7472	1106.7324	988.90033	1664.2527	1162.2675	957.53839	1700.3477	1183.8489	922.78271	1662.0378	1215.048	939.76892	1659.4421	1159.9038	999.00024	1668.4419	-1579.5005	1058.8378	1670.131	-1518.6858	1024.9634	1708.0024	-1551.1836	1059.2357	1672.1672	-1585.6129	-261.35944	164.30861	-221.60724	-346.6756	172.83655	-224.61989	-303.27756	129.17804	-221.93002	-299.64813	169.50069	-191.75308	-297.90552	166.3804	-270.20435																																														-1068.7673	209.97107	-1624.955	-1073.9662	248.61641	-1624.2415	-1321.5735	231.50668	1025.1049	-1320.2478	270.25668	1029.3096	848.2688	183.67036	1196.1998	852.05157	222.43144	1194.1334	1088.719	202.6554	-1428.2784	1082.611	240.95181	-1432.4108	-1171.9128	1686.9445	-1581.735	-1170.5803	1647.9679	-1581.5001	-1270.8202	1698.7755	1098.0354	-1271.2393	1659.7963	1099.2368	953.20203	1705.3383	1186.8328	972.98462	1733.4978	1168.4836	1026.4667	1669.2172	-1551.5854	1027.9771	1630.2484	-1551.9893	-299.35043	168.10606	-222.94876	-295.43729	206.89597	-223.96387
